<svg width="24" height="24" viewBox="0 0 24 24" xmlns="http://www.w3.org/2000/svg">
<path fill="#4285F4" d="M23.5 12.3c0-.8-.1-1.4-.2-2.1H12v4h6.5c-.3 1.4-1.2 2.6-2.6 3.4v2.8h4.2c2.5-2.3 3.9-5.6 3.9-9.1z"/>
<path fill="#34A853" d="M12 24c3.2 0 5.9-1.1 7.9-2.9l-4.2-2.8c-1.2.8-2.7 1.3-4.7 1.3-3.6 0-6.7-2.4-7.8-5.7H.8v2.9C2.8 21.3 7.1 24 12 24z"/>
<path fill="#FBBC05" d="M4.2 14c-.3-.8-.5-1.6-.5-2.5s.2-1.7.5-2.5V6H.8C.3 7.4 0 8.9 0 11.5s.3 4.1.8 5.5l3.4-3z"/>
<path fill="#EA4335" d="M12 4.7c1.8 0 3.4.6 4.7 1.8l3.5-3.5C17.9.8 15.2 0 12 0 7.1 0 2.8 2.7.8 6l3.4 3c1.1-3.3 4.2-5.7 7.8-5.7z"/>
</svg>